<svg width="40" height="40" viewBox="0 0 40 40" fill="none" xmlns="http://www.w3.org/2000/svg">
<g clip-path="url(#clip0_1_8839)">
<path d="M28.1667 0.666672H3.33335C1.86085 0.666672 0.666687 1.86084 0.666687 3.33334V36.6667C0.666687 38.1392 1.86085 39.3333 3.33335 39.3333H28.1667C29.6392 39.3333 30.8334 38.1392 30.8334 36.6667V3.33334C30.8334 1.86084 29.6392 0.666672 28.1667 0.666672Z" fill="#B9DCFF"/>
<path d="M26.75 16.51V18.5733C26.75 19.1775 26.2608 19.6667 25.6566 19.6667H22.76C22.1558 19.6667 21.6666 19.1775 21.6666 18.5733V16.51C21.6666 15.9058 22.1558 15.4167 22.76 15.4167H25.6566C26.2608 15.4167 26.75 15.9058 26.75 16.51Z" fill="#B9DCFF"/>
<path d="M18.25 16.51V18.5734C18.25 19.1775 17.7609 19.6667 17.1567 19.6667H14.26C13.6559 19.6667 13.1667 19.1775 13.1667 18.5734V16.51C13.1667 15.9059 13.6559 15.4167 14.26 15.4167H17.1567C17.7609 15.4167 18.25 15.9059 18.25 16.51Z" fill="#D1E7FF"/>
<path d="M18.25 24.51V26.5733C18.25 27.1775 17.7609 27.6667 17.1567 27.6667H14.26C13.6559 27.6667 13.1667 27.1775 13.1667 26.5733V24.51C13.1667 23.9058 13.6559 23.4167 14.26 23.4167H17.1567C17.7609 23.4167 18.25 23.9058 18.25 24.51Z" fill="#D1E7FF"/>
<path d="M18.25 32.51V34.5733C18.25 35.1775 17.7609 35.6667 17.1567 35.6667H14.26C13.6559 35.6667 13.1667 35.1775 13.1667 34.5733V32.51C13.1667 31.9058 13.6559 31.4167 14.26 31.4167H17.1567C17.7609 31.4167 18.25 31.9058 18.25 32.51Z" fill="#D1E7FF"/>
<path d="M9.83334 32.51V34.5733C9.83334 35.1775 9.34417 35.6667 8.74 35.6667H5.84333C5.23917 35.6667 4.75 35.1775 4.75 34.5733V32.51C4.75 31.9058 5.23917 31.4167 5.84333 31.4167H8.74C9.34417 31.4167 9.83334 31.9058 9.83334 32.51Z" fill="#D1E7FF"/>
<path d="M9.83334 24.51V26.5733C9.83334 27.1775 9.34417 27.6667 8.74 27.6667H5.84333C5.23917 27.6667 4.75 27.1775 4.75 26.5733V24.51C4.75 23.9058 5.23917 23.4167 5.84333 23.4167H8.74C9.34417 23.4167 9.83334 23.9058 9.83334 24.51Z" fill="#D1E7FF"/>
<path d="M9.83334 16.51V18.5734C9.83334 19.1775 9.34417 19.6667 8.74 19.6667H5.84333C5.23917 19.6667 4.75 19.1775 4.75 18.5734V16.51C4.75 15.9059 5.23917 15.4167 5.84333 15.4167H8.74C9.34417 15.4167 9.83334 15.9059 9.83334 16.51Z" fill="#D1E7FF"/>
<path d="M26.7501 5.74999V10.4167C26.7501 11.1533 26.1534 11.75 25.4167 11.75H6.08339C5.34673 11.75 4.75006 11.1533 4.75006 10.4167V5.74999C4.75006 5.01332 5.34673 4.41666 6.08339 4.41666H25.4167C26.1534 4.41666 26.7501 5.01332 26.7501 5.74999Z" fill="#D1E7FF"/>
<path d="M36.7387 36.7869C40.1878 33.3378 40.1878 27.7457 36.7387 24.2966C33.2896 20.8474 27.6974 20.8474 24.2483 24.2966C20.7992 27.7457 20.7992 33.3378 24.2483 36.7869C27.6974 40.236 33.2896 40.236 36.7387 36.7869Z" fill="#D1E7FF"/>
<path d="M24.2665 33.5414C24.4366 34.6649 22.86 35.1218 22.4043 34.081C19.8074 28.15 24.3371 21.6168 30.6324 21.7093C31.7742 21.7261 31.972 23.355 30.865 23.6357C26.5611 24.7268 23.5598 28.8723 24.2665 33.5414Z" fill="#E8F3FF"/>
<path d="M17.2315 15.4192C17.6526 15.4476 17.6201 16.0833 17.198 16.0833H15.4267C14.8225 16.0833 14.3294 16.5725 14.3334 17.1767C14.3375 17.8196 14.3383 18.2702 14.3347 18.5975C14.3264 19.3417 13.1667 19.4062 13.1667 18.5733V16.51C13.1667 15.9062 13.6562 15.4167 14.26 15.4167C14.26 15.4167 17.2068 15.4175 17.2315 15.4192Z" fill="#E8F3FF"/>
<path d="M25.7315 15.4192C26.1525 15.4476 26.12 16.0833 25.698 16.0833H23.9266C23.3225 16.0833 22.8294 16.5725 22.8333 17.1767C22.8375 17.8196 22.8382 18.2702 22.8346 18.5975C22.8264 19.3417 21.6666 19.4062 21.6666 18.5733V16.51C21.6666 15.9062 22.1561 15.4167 22.76 15.4167C22.76 15.4167 25.7067 15.4175 25.7315 15.4192Z" fill="#D1E7FF"/>
<path d="M8.81483 15.4192C9.23592 15.4476 9.20342 16.0833 8.78133 16.0833H7.01C6.40583 16.0833 5.91275 16.5725 5.91667 17.1767C5.92083 17.8196 5.92158 18.2702 5.918 18.5975C5.90975 19.3417 4.75 19.4061 4.75 18.5733V16.51C4.75 15.9062 5.2395 15.4167 5.84333 15.4167C5.84333 15.4167 8.79008 15.4175 8.81483 15.4192Z" fill="#E8F3FF"/>
<path d="M17.2315 23.4192C17.6526 23.4476 17.6201 24.0833 17.198 24.0833H15.4267C14.8225 24.0833 14.3294 24.5725 14.3334 25.1767C14.3375 25.8196 14.3383 26.2702 14.3347 26.5975C14.3264 27.3417 13.1667 27.4062 13.1667 26.5733V24.51C13.1667 23.9062 13.6562 23.4167 14.26 23.4167C14.26 23.4167 17.2068 23.4175 17.2315 23.4192Z" fill="#E8F3FF"/>
<path d="M8.81483 23.4192C9.23592 23.4476 9.20342 24.0833 8.78133 24.0833H7.01C6.40583 24.0833 5.91275 24.5725 5.91667 25.1767C5.92083 25.8196 5.92158 26.2702 5.918 26.5975C5.90975 27.3417 4.75 27.4061 4.75 26.5733V24.51C4.75 23.9062 5.2395 23.4167 5.84333 23.4167C5.84333 23.4167 8.79008 23.4175 8.81483 23.4192Z" fill="#E8F3FF"/>
<path d="M17.2315 31.4192C17.6526 31.4476 17.6201 32.0833 17.198 32.0833H15.4267C14.8225 32.0833 14.3294 32.5725 14.3334 33.1767C14.3375 33.8196 14.3383 34.2703 14.3347 34.5975C14.3264 35.3417 13.1667 35.4062 13.1667 34.5733V32.51C13.1667 31.9062 13.6562 31.4167 14.26 31.4167C14.26 31.4167 17.2068 31.4175 17.2315 31.4192Z" fill="#E8F3FF"/>
<path d="M8.81483 31.4192C9.23592 31.4476 9.20342 32.0833 8.78133 32.0833H7.01C6.40583 32.0833 5.91275 32.5725 5.91667 33.1767C5.92083 33.8196 5.92158 34.2703 5.918 34.5975C5.90975 35.3417 4.75 35.4061 4.75 34.5733V32.51C4.75 31.9062 5.2395 31.4167 5.84333 31.4167C5.84333 31.4167 8.79008 31.4175 8.81483 31.4192Z" fill="#E8F3FF"/>
<path d="M25.4438 5.66667H8.16667C7.43 5.66667 6.83333 6.26334 6.83342 7.00001V10.9999C6.83358 11.4143 6.49775 11.75 6.08333 11.75C5.34692 11.75 4.75 11.1531 4.75 10.4167V5.75001C4.75 5.01359 5.34692 4.41667 6.08333 4.41667H25.4167C26.3227 4.41667 26.2456 5.66667 25.4438 5.66667Z" fill="#E8F3FF"/>
<path d="M0.666687 35.9977V3.33332C0.666687 1.86057 1.8606 0.666656 3.33335 0.666656C29.2579 0.667073 28.173 0.664323 28.2859 0.66924C29.3594 0.716573 29.3056 2.33332 28.231 2.33332H5.83335C4.3606 2.33332 3.16669 3.52724 3.16669 4.99999V35.9977C3.16669 37.6369 0.666687 37.6305 0.666687 35.9977Z" fill="#D1E7FF"/>
<path d="M25.3951 11.75C25.3951 11.3818 25.0966 11.0833 24.7285 11.0833H6.08331C5.71573 11.0833 5.41665 10.7843 5.41665 10.4167V5.75C5.41665 5.38242 5.71573 5.08333 6.08331 5.08333H25.4166C25.7842 5.08333 26.0833 5.38242 26.0833 5.75V9.02958C26.0833 9.39775 26.3818 9.69625 26.75 9.69625C27.1181 9.69625 27.4166 9.39775 27.4166 9.02958V5.75C27.4166 4.64725 26.5194 3.75 25.4166 3.75H6.08331C4.98056 3.75 4.08331 4.64725 4.08331 5.75V10.4167C4.08331 11.5194 4.98056 12.4167 6.08331 12.4167H24.7285C25.0966 12.4167 25.3951 12.1182 25.3951 11.75Z" fill="#2E58FF"/>
<path d="M10.5 16.5098C10.5 15.5394 9.71056 14.75 8.74023 14.75H5.84306C4.87273 14.75 4.08331 15.5394 4.08331 16.5098V18.5736C4.08331 19.5439 4.87273 20.3333 5.84306 20.3333H8.74023C9.71056 20.3333 10.5 19.5439 10.5 18.5736V16.5098ZM9.16665 18.5736C9.16665 18.8088 8.9754 19 8.74023 19H5.84306C5.6079 19 5.41665 18.8088 5.41665 18.5736V16.5098C5.41665 16.2746 5.6079 16.0833 5.84306 16.0833H8.74023C8.9754 16.0833 9.16665 16.2746 9.16665 16.5098V18.5736Z" fill="#2E58FF"/>
<path d="M18.9167 16.5098C18.9167 15.5394 18.1273 14.75 17.1569 14.75H14.2598C13.2894 14.75 12.5 15.5394 12.5 16.5098V18.5736C12.5 19.5439 13.2894 20.3333 14.2598 20.3333H17.1569C18.1273 20.3333 18.9167 19.5439 18.9167 18.5736V16.5098ZM17.5833 18.5736C17.5833 18.8088 17.3921 19 17.1569 19H14.2598C14.0246 19 13.8333 18.8088 13.8333 18.5736V16.5098C13.8333 16.2746 14.0246 16.0833 14.2598 16.0833H17.1569C17.3921 16.0833 17.5833 16.2746 17.5833 16.5098V18.5736Z" fill="#2E58FF"/>
<path d="M25.6569 14.75H22.7598C21.7894 14.75 21 15.5394 21 16.5098V18.5736C21 19.5439 21.7894 20.3333 22.7598 20.3333H25.6569C26.6273 20.3333 27.4167 19.5439 27.4167 18.5736V16.5098C27.4167 15.5394 26.6273 14.75 25.6569 14.75ZM26.0833 18.5736C26.0833 18.8088 25.892 19 25.6569 19H22.7598C22.5247 19 22.3333 18.8088 22.3333 18.5736V16.5098C22.3333 16.2746 22.5247 16.0833 22.7598 16.0833H25.6569C25.892 16.0833 26.0833 16.2746 26.0833 16.5098V18.5736Z" fill="#2E58FF"/>
<path d="M10.5 24.5097C10.5 23.5394 9.71056 22.75 8.74023 22.75H5.84306C4.87273 22.75 4.08331 23.5394 4.08331 24.5097V26.5736C4.08331 27.5439 4.87273 28.3333 5.84306 28.3333H8.74023C9.71056 28.3333 10.5 27.5439 10.5 26.5736V24.5097ZM9.16665 26.5736C9.16665 26.8087 8.9754 27 8.74023 27H5.84306C5.6079 27 5.41665 26.8087 5.41665 26.5736V24.5097C5.41665 24.2746 5.6079 24.0833 5.84306 24.0833H8.74023C8.9754 24.0833 9.16665 24.2746 9.16665 24.5097V26.5736Z" fill="#2E58FF"/>
<path d="M18.9167 24.5097C18.9167 23.5394 18.1273 22.75 17.1569 22.75H14.2598C13.2894 22.75 12.5 23.5394 12.5 24.5097V26.5736C12.5 27.5439 13.2894 28.3333 14.2598 28.3333H17.1569C18.1273 28.3333 18.9167 27.5439 18.9167 26.5736V24.5097ZM17.5833 26.5736C17.5833 26.8087 17.3921 27 17.1569 27H14.2598C14.0246 27 13.8333 26.8087 13.8333 26.5736V24.5097C13.8333 24.2746 14.0246 24.0833 14.2598 24.0833H17.1569C17.3921 24.0833 17.5833 24.2746 17.5833 24.5097V26.5736Z" fill="#2E58FF"/>
<path d="M8.74023 30.75H5.84306C4.87273 30.75 4.08331 31.5394 4.08331 32.5098V34.5736C4.08331 35.5439 4.87273 36.3333 5.84306 36.3333H8.74023C9.71056 36.3333 10.5 35.5439 10.5 34.5736V32.5098C10.5 31.5394 9.71056 30.75 8.74023 30.75ZM9.16665 34.5736C9.16665 34.8088 8.9754 35 8.74023 35H5.84306C5.6079 35 5.41665 34.8088 5.41665 34.5736V32.5098C5.41665 32.2746 5.6079 32.0833 5.84306 32.0833H8.74023C8.9754 32.0833 9.16665 32.2746 9.16665 32.5098V34.5736Z" fill="#2E58FF"/>
<path d="M17.1569 30.75H14.2598C13.2894 30.75 12.5 31.5394 12.5 32.5098V34.5736C12.5 35.5439 13.2894 36.3333 14.2598 36.3333H17.1569C18.1273 36.3333 18.9167 35.5439 18.9167 34.5736V32.5098C18.9167 31.5394 18.1273 30.75 17.1569 30.75ZM17.5833 34.5736C17.5833 34.8088 17.3921 35 17.1569 35H14.2598C14.0246 35 13.8333 34.8088 13.8333 34.5736V32.5098C13.8333 32.2746 14.0246 32.0833 14.2598 32.0833H17.1569C17.3921 32.0833 17.5833 32.2746 17.5833 32.5098V34.5736Z" fill="#2E58FF"/>
<path d="M31.1667 25.25C31.1667 24.8818 30.8682 24.5833 30.5 24.5833C30.1318 24.5833 29.8333 24.8818 29.8333 25.25V26.0879C28.4154 26.3401 27.3495 27.3787 27.3495 28.6186C27.3495 30.577 29.0931 30.9341 30.3662 31.1947C31.8539 31.4994 32.3171 31.7142 32.3171 32.4646C32.3171 33.1456 31.485 33.7209 30.4999 33.7209C29.8271 33.7209 29.2094 33.4578 28.8879 33.0344C28.6652 32.7411 28.247 32.6839 27.9538 32.9065C27.6605 33.1291 27.6033 33.5473 27.8259 33.8406C28.2832 34.443 29.0065 34.8518 29.8332 34.9959V35.8333C29.8332 36.2015 30.1317 36.5 30.4999 36.5C30.8681 36.5 31.1666 36.2015 31.1666 35.8333V34.9954C32.5845 34.7432 33.6504 33.7046 33.6504 32.4646C33.6504 30.5063 31.9068 30.1492 30.6337 29.8886C29.146 29.5839 28.6828 29.3691 28.6828 28.6187C28.6828 27.9377 29.5149 27.3624 30.5 27.3624C31.1728 27.3624 31.7905 27.6255 32.112 28.0489C32.3347 28.3421 32.753 28.3994 33.0461 28.1768C33.3394 27.9541 33.3966 27.536 33.174 27.2427C32.7167 26.6403 31.9934 26.2315 31.1667 26.0874V25.25Z" fill="#2E58FF"/>
<path d="M34.7676 22.0103C34.4389 21.8448 34.0379 21.977 33.8723 22.3059C33.7067 22.6348 33.8391 23.0356 34.1678 23.2012C36.9428 24.5987 38.6667 27.3954 38.6667 30.5C38.6667 35.0032 35.0031 38.6667 30.5 38.6667C25.9969 38.6667 22.3333 35.0032 22.3333 30.5C22.3333 25.9968 25.9969 22.3333 30.5 22.3333C30.7828 22.3333 30.9561 22.375 31.1727 22.2463C31.3702 22.1294 31.4915 21.9201 31.4995 21.6976C31.5002 21.677 31.5 3.37558 31.5 3.33333C31.5 1.49533 30.0047 0 28.1667 0H3.33333C1.49533 0 0 1.49533 0 3.33333V36.6667C0 38.5047 1.49533 40 3.33333 40H22.1264C22.4946 40 22.7931 39.7015 22.7931 39.3333C22.7931 38.9652 22.4946 38.6667 22.1264 38.6667H3.33333C2.23058 38.6667 1.33333 37.7694 1.33333 36.6667V3.33333C1.33333 2.23058 2.23058 1.33333 3.33333 1.33333H28.1667C29.2694 1.33333 30.1667 2.23058 30.1667 3.33333V21.0065C25.0822 21.1828 21 25.3733 21 30.5C21 35.7383 25.2618 40 30.5 40C35.7383 40 40 35.7383 40 30.5C40 26.8888 37.995 23.6357 34.7676 22.0103Z" fill="#2E58FF"/>
<path d="M23.3333 10C23.7015 10 24 9.70151 24 9.33334V6.83334C24 6.46517 23.7015 6.16667 23.3333 6.16667H22.6667C22.2985 6.16667 22 6.46517 22 6.83334C22 7.20151 22.2985 7.50001 22.6667 7.50001V9.33334C22.6667 9.70151 22.9652 10 23.3333 10Z" fill="#2E58FF"/>
</g>
<defs>
<clipPath id="clip0_1_8839">
<rect width="40" height="40" fill="white"/>
</clipPath>
</defs>
</svg>
