<svg width="19" height="18" viewBox="0 0 19 18" fill="none" xmlns="http://www.w3.org/2000/svg">
<path d="M9.5 14.25C9.64834 14.25 9.79334 14.206 9.91668 14.1236C10.04 14.0412 10.1361 13.9241 10.1929 13.787C10.2497 13.65 10.2645 13.4992 10.2356 13.3537C10.2066 13.2082 10.1352 13.0746 10.0303 12.9697C9.92544 12.8648 9.7918 12.7934 9.64632 12.7644C9.50083 12.7355 9.35003 12.7503 9.21299 12.8071C9.07594 12.8639 8.95881 12.96 8.8764 13.0833C8.79399 13.2067 8.75 13.3517 8.75 13.5C8.75 13.6989 8.82902 13.8897 8.96967 14.0303C9.11032 14.171 9.30109 14.25 9.5 14.25ZM13.25 14.25C13.3983 14.25 13.5433 14.206 13.6667 14.1236C13.79 14.0412 13.8861 13.9241 13.9429 13.787C13.9997 13.65 14.0145 13.4992 13.9856 13.3537C13.9566 13.2082 13.8852 13.0746 13.7803 12.9697C13.6754 12.8648 13.5418 12.7934 13.3963 12.7644C13.2508 12.7355 13.1 12.7503 12.963 12.8071C12.8259 12.8639 12.7088 12.96 12.6264 13.0833C12.544 13.2067 12.5 13.3517 12.5 13.5C12.5 13.6989 12.579 13.8897 12.7197 14.0303C12.8603 14.171 13.0511 14.25 13.25 14.25ZM13.25 11.25C13.3983 11.25 13.5433 11.206 13.6667 11.1236C13.79 11.0412 13.8861 10.9241 13.9429 10.787C13.9997 10.65 14.0145 10.4992 13.9856 10.3537C13.9566 10.2082 13.8852 10.0746 13.7803 9.96967C13.6754 9.86478 13.5418 9.79335 13.3963 9.76441C13.2508 9.73547 13.1 9.75032 12.963 9.80709C12.8259 9.86386 12.7088 9.95998 12.6264 10.0833C12.544 10.2067 12.5 10.3517 12.5 10.5C12.5 10.6989 12.579 10.8897 12.7197 11.0303C12.8603 11.171 13.0511 11.25 13.25 11.25ZM9.5 11.25C9.64834 11.25 9.79334 11.206 9.91668 11.1236C10.04 11.0412 10.1361 10.9241 10.1929 10.787C10.2497 10.65 10.2645 10.4992 10.2356 10.3537C10.2066 10.2082 10.1352 10.0746 10.0303 9.96967C9.92544 9.86478 9.7918 9.79335 9.64632 9.76441C9.50083 9.73547 9.35003 9.75032 9.21299 9.80709C9.07594 9.86386 8.95881 9.95998 8.8764 10.0833C8.79399 10.2067 8.75 10.3517 8.75 10.5C8.75 10.6989 8.82902 10.8897 8.96967 11.0303C9.11032 11.171 9.30109 11.25 9.5 11.25ZM14.75 2.25H14V1.5C14 1.30109 13.921 1.11032 13.7803 0.96967C13.6397 0.829018 13.4489 0.75 13.25 0.75C13.0511 0.75 12.8603 0.829018 12.7197 0.96967C12.579 1.11032 12.5 1.30109 12.5 1.5V2.25H6.5V1.5C6.5 1.30109 6.42098 1.11032 6.28033 0.96967C6.13968 0.829018 5.94891 0.75 5.75 0.75C5.55109 0.75 5.36032 0.829018 5.21967 0.96967C5.07902 1.11032 5 1.30109 5 1.5V2.25H4.25C3.65326 2.25 3.08097 2.48705 2.65901 2.90901C2.23705 3.33097 2 3.90326 2 4.5V15C2 15.5967 2.23705 16.169 2.65901 16.591C3.08097 17.0129 3.65326 17.25 4.25 17.25H14.75C15.3467 17.25 15.919 17.0129 16.341 16.591C16.7629 16.169 17 15.5967 17 15V4.5C17 3.90326 16.7629 3.33097 16.341 2.90901C15.919 2.48705 15.3467 2.25 14.75 2.25ZM15.5 15C15.5 15.1989 15.421 15.3897 15.2803 15.5303C15.1397 15.671 14.9489 15.75 14.75 15.75H4.25C4.05109 15.75 3.86032 15.671 3.71967 15.5303C3.57902 15.3897 3.5 15.1989 3.5 15V8.25H15.5V15ZM15.5 6.75H3.5V4.5C3.5 4.30109 3.57902 4.11032 3.71967 3.96967C3.86032 3.82902 4.05109 3.75 4.25 3.75H5V4.5C5 4.69891 5.07902 4.88968 5.21967 5.03033C5.36032 5.17098 5.55109 5.25 5.75 5.25C5.94891 5.25 6.13968 5.17098 6.28033 5.03033C6.42098 4.88968 6.5 4.69891 6.5 4.5V3.75H12.5V4.5C12.5 4.69891 12.579 4.88968 12.7197 5.03033C12.8603 5.17098 13.0511 5.25 13.25 5.25C13.4489 5.25 13.6397 5.17098 13.7803 5.03033C13.921 4.88968 14 4.69891 14 4.5V3.75H14.75C14.9489 3.75 15.1397 3.82902 15.2803 3.96967C15.421 4.11032 15.5 4.30109 15.5 4.5V6.75ZM5.75 11.25C5.89834 11.25 6.04334 11.206 6.16668 11.1236C6.29001 11.0412 6.38614 10.9241 6.44291 10.787C6.49968 10.65 6.51453 10.4992 6.48559 10.3537C6.45665 10.2082 6.38522 10.0746 6.28033 9.96967C6.17544 9.86478 6.0418 9.79335 5.89632 9.76441C5.75083 9.73547 5.60003 9.75032 5.46299 9.80709C5.32594 9.86386 5.20881 9.95998 5.1264 10.0833C5.04399 10.2067 5 10.3517 5 10.5C5 10.6989 5.07902 10.8897 5.21967 11.0303C5.36032 11.171 5.55109 11.25 5.75 11.25ZM5.75 14.25C5.89834 14.25 6.04334 14.206 6.16668 14.1236C6.29001 14.0412 6.38614 13.9241 6.44291 13.787C6.49968 13.65 6.51453 13.4992 6.48559 13.3537C6.45665 13.2082 6.38522 13.0746 6.28033 12.9697C6.17544 12.8648 6.0418 12.7934 5.89632 12.7644C5.75083 12.7355 5.60003 12.7503 5.46299 12.8071C5.32594 12.8639 5.20881 12.96 5.1264 13.0833C5.04399 13.2067 5 13.3517 5 13.5C5 13.6989 5.07902 13.8897 5.21967 14.0303C5.36032 14.171 5.55109 14.25 5.75 14.25Z" fill="white"/>
</svg>
